<svg xmlns="http://www.w3.org/2000/svg" width="30" height="30" viewBox="0 0 21 30"><g fill="none" fill-rule="evenodd"><path stroke="white" stroke-with="10" fill="red" d="M0 10.26c0 5.352 4.522 12.254 7.54 15.616 1.13 1.254 2.445 2.944 2.445 2.944s1.41-1.7 2.623-2.99c3.016-3.222 7.363-9.69 7.363-15.57C19.97 4.59 15.5 0 9.988 0 4.47 0 0 4.592 0 10.26z"/><path fill="#FFF" d="M9.986 14.856c-2.49 0-4.512-2.076-4.512-4.634 0-2.562 2.02-4.636 4.512-4.636 2.49 0 4.512 2.076 4.512 4.636 0 2.558-2.022 4.634-4.512 4.634"/></g></svg>